<?xml version="1.0" encoding="UTF-8"?>
<!-- Generator: Adobe Illustrator 27.0.0, SVG Export Plug-In . SVG Version: 6.00 Build 0)  -->
<svg xmlns="http://www.w3.org/2000/svg" xmlns:xlink="http://www.w3.org/1999/xlink" version="1.1" id="Capa_1" x="0px" y="0px" width="540.226px" height="247.402px" viewBox="0 0 540.226 247.402" style="enable-background:new 0 0 540.226 247.402;" xml:space="preserve">
<style type="text/css">
	.st0{fill:#FFFFFF;}
</style>
<path class="st0" d="M24.557,140.749h-5.605v10.728h-4.839v-30.649h11.662c4.282,0,7.415,0.941,9.434,2.821  c2.019,1.881,3.063,4.249,3.063,7.175c0,4.841-2.576,8.394-8.216,9.543l8.46,11.11h-5.918L24.557,140.749z M18.952,136.082h6.545  c5.187,0,7.763-1.776,7.763-5.294c0-3.447-2.158-5.328-7.763-5.328h-6.545V136.082z M49.588,125.46v8.15h15.944v4.528H49.588v8.672  h17.998v4.667H44.748v-30.649h22.838v4.667H49.588V125.46z M87.43,120.166c7.624,0,12.567,5.259,13.124,10.866h-4.978  c-0.452-2.856-3.203-6.06-8.146-6.06c-6.058,0-9.853,4.667-9.853,11.18c0,6.513,3.76,11.179,9.747,11.179  c4.944,0,7.764-3.344,8.216-6.06h4.978c-0.557,5.607-5.57,10.866-13.124,10.866c-8.808,0-14.865-6.339-14.865-15.951  C72.53,126.575,78.622,120.166,87.43,120.166z M107.029,120.793h4.84v30.649h-4.84V120.793z M144.977,120.793v30.649h-5.153  l-15.457-23.509v23.509h-4.595v-30.649h5.188l15.457,23.509v-23.509H144.977z M177.492,125.46h-10.966v25.982h-4.839V125.46h-10.862  v-4.667h26.667V125.46z M196.848,120.166c8.738-0.104,16.397,6.094,16.258,15.951c0.174,9.194-7.589,16.09-16.258,15.951  c-8.669,0.139-16.467-6.687-16.328-15.881C180.346,126.818,188.18,120.027,196.848,120.166z M196.848,124.972  c-6.789,0-11.314,5.05-11.314,11.354c0,6.199,4.386,10.971,11.314,10.971c6.719,0,11.245-4.876,11.245-11.076  C208.093,129.918,203.672,124.972,196.848,124.972z M18.952,172.025v8.15h15.875v4.528H18.952v13.304h-4.839v-30.649h22.733v4.667  H18.952z M47.917,172.025v8.15h15.944v4.528H47.917v8.672h17.998v4.632H43.078v-30.649h22.837v4.667H47.917z M82.695,187.28H77.09  v10.727h-4.839v-30.649h11.662c4.282,0,7.415,0.941,9.434,2.822c2.019,1.881,3.064,4.249,3.064,7.175  c0,4.841-2.577,8.393-8.216,9.542l8.46,11.11h-5.918L82.695,187.28z M77.09,182.647h6.545c5.187,0,7.763-1.776,7.763-5.293  c0-3.448-2.158-5.329-7.763-5.329H77.09V182.647z M102.887,167.358h4.84v30.649h-4.84V167.358z M132.757,191.494h-12.533  l-2.367,6.513H112.6l11.976-30.649h4.107l11.836,30.649h-5.361L132.757,191.494z M131.051,186.896l-4.526-12.294l-4.561,12.294  H131.051z M168.545,193.34v4.667h-22.489v-30.649h4.839v25.982H168.545z M308.982,109.927h8.529v39.007h-8.529V109.927z   M325.692,149.039h8.495v-15.812h18.973v-7.906h-18.973v-7.07h21.549v-8.289h-30.044V149.039z M393.682,140.715H371.89v-7.488  h19.251v-7.906H371.89v-7.07h21.793v-8.289h-30.357v39.007h30.357V140.715z M330.497,186.374l-10.27-27.41h-11.245v39.042h7.938  v-25.111l9.399,25.111h8.216l9.469-25.285v25.215h7.938v-38.972h-11.279L330.497,186.374z M380.349,158.999h-7.763l-15.005,39.007  h9.365l2.332-6.478h13.926l2.298,6.478h9.539l-14.621-38.833L380.349,158.999z M372.099,183.239l4.108-11.598l4.073,11.598H372.099z   M420.594,142.351l-14.065-32.111l-0.174-0.348h-5.326v39.077h4.143v-31.484l13.751,31.206l0.139,0.313h3.029l13.856-31.763v31.763  h4.177v-39.077h-5.431L420.594,142.351z M464.354,110.275l-0.139-0.383h-3.411l-15.109,39.077h4.595l3.76-9.856h17.023l3.795,9.856  h4.665L464.354,110.275z M455.546,135.072l6.928-18.494l7.067,18.494H455.546z M413.178,158.964h-12.15v39.007h12.15  c13.891,0,21.271-6.757,21.271-19.469C434.414,165.895,426.894,158.964,413.178,158.964z M412.552,193.862h-7.137v-30.788h7.137  c11.523,0,17.337,5.154,17.372,15.359C429.924,188.533,423.935,193.862,412.552,193.862z M470.411,170.527  c0-7.627-5.953-11.598-15.492-11.598h-13.577v39.007h4.317v-15.742h9.782l10.166,15.533l0.174,0.244l5.152-0.035l-10.827-16.194  C466.617,180.418,470.411,176.553,470.411,170.527z M454.537,178.224h-8.808v-15.15h8.808c7.415,0,11.384,2.124,11.384,7.523  C465.92,175.856,461.847,178.224,454.537,178.224z M478.662,158.964h4.317v39.007h-4.317V158.964z M521.1,164.467  c-3.656-3.657-9.121-5.503-16.223-5.503h-12.15v39.042h12.15c7.171,0,12.672-1.811,16.292-5.468  c3.273-3.274,4.943-8.01,4.943-14.036C526.147,172.512,524.441,167.776,521.1,164.467z M504.25,193.862h-7.137v-30.788h7.137  c11.524,0,17.337,5.154,17.372,15.359C521.622,188.533,515.599,193.862,504.25,193.862L504.25,193.862z M289.765,105.504  l51.106-70.7l-39.792-28.35c0,0-45.884,72.651-48.634,77.666c-2.228,4.075-6.58,12.155-6.232,19.364  c0.174,3.552,1.358,9.229,3.621,16.369c2.472,7.697,30.044,78.05,30.044,78.05h9.887C289.8,197.902,289.556,147.994,289.765,105.504  z M292.515,52.844c0.07-0.522,0.139-1.01,0.209-1.533c2.193-16.926,4.178-27.932,5.675-34.758c1.009-2.124,2.228-4.179,3.585-6.129  l34.57,25.111l-46.719,64.571C290.044,80.706,290.983,64.79,292.515,52.844L292.515,52.844z M330.044,236.596v4.354h-21.062v-28.663  h4.526v24.31H330.044z M335.509,212.286h4.526v28.663h-4.526V212.286z M370.984,212.286l-11.001,28.663h-3.864l-11.245-28.663h5.187  l8.007,21.872l7.902-21.872H370.984z M380.349,216.64v7.627h14.935v4.214h-14.935v8.115h16.815v4.354h-21.341v-28.663h21.341v4.354  H380.349z"></path>
<g>
</g>
<g>
</g>
<g>
</g>
<g>
</g>
<g>
</g>
<g>
</g>
<g>
</g>
<g>
</g>
<g>
</g>
<g>
</g>
<g>
</g>
<g>
</g>
<g>
</g>
<g>
</g>
<g>
</g>
</svg>
